<svg width="25" height="25" viewBox="0 0 25 25" fill="none" xmlns="http://www.w3.org/2000/svg">
<path d="M12.3333 14.67C10.2033 14.67 8.46332 12.94 8.46332 10.8C8.46332 8.66 10.2033 6.94 12.3333 6.94C14.4633 6.94 16.2033 8.67 16.2033 10.81C16.2033 12.95 14.4633 14.67 12.3333 14.67ZM12.3333 8.44C11.0333 8.44 9.96332 9.5 9.96332 10.81C9.96332 12.12 11.0233 13.18 12.3333 13.18C13.6433 13.18 14.7033 12.12 14.7033 10.81C14.7033 9.5 13.6333 8.44 12.3333 8.44Z" fill="#1A1A1A"/>
<path d="M12.3333 23.26C10.8533 23.26 9.36331 22.7 8.20331 21.59C5.25331 18.75 1.99331 14.22 3.22331 8.83C4.33331 3.94 8.60331 1.75 12.3333 1.75C12.3333 1.75 12.3333 1.75 12.3433 1.75C16.0733 1.75 20.3433 3.94 21.4533 8.84C22.6733 14.23 19.4133 18.75 16.4633 21.59C15.3033 22.7 13.8133 23.26 12.3333 23.26ZM12.3333 3.25C9.42331 3.25 5.68331 4.8 4.69331 9.16C3.61331 13.87 6.57331 17.93 9.25331 20.5C10.9833 22.17 13.6933 22.17 15.4233 20.5C18.0933 17.93 21.0533 13.87 19.9933 9.16C18.9933 4.8 15.2433 3.25 12.3333 3.25Z" fill="#1A1A1A"/>
</svg>
