<svg width="115" height="107" viewBox="0 0 115 107" fill="none" xmlns="http://www.w3.org/2000/svg">
<path d="M90.9362 54.673C89.8581 55.0209 88.7327 55.1583 87.603 55.0918L87.5844 55.0978C85.0846 54.9194 82.7862 53.7114 80.9721 51.5877C78.2112 48.3741 76.8328 43.3392 77.2724 38.0872C77.8539 30.9217 81.6483 24.936 86.6801 23.2302L86.7916 23.1942C87.8697 22.8463 89.0137 22.7029 90.1434 22.7694L90.162 22.7634C92.6618 22.9418 94.9417 24.1558 96.7743 26.2735C99.5352 29.4871 100.932 34.516 100.511 39.762C99.9039 47.0384 96.0664 53.0176 90.9548 54.667L90.9362 54.673ZM88.0089 48.845C88.3609 48.8546 88.7009 48.827 89.0355 48.719C91.266 47.9993 93.8511 44.4355 94.2716 39.2512C94.559 35.69 93.7025 32.2723 92.0347 30.3477C91.3139 29.5131 90.5524 29.0611 89.7315 28.9976C89.3795 28.988 89.0395 29.0157 88.705 29.1236L88.6492 29.1416C86.4493 29.8926 83.9073 33.4629 83.4874 38.5855C83.2 42.1466 84.038 45.5703 85.7117 47.5135C86.4265 48.3295 87.194 48.8001 88.0089 48.845Z" fill="#FFA672"/>
<path d="M91.0382 85.835C87.7296 86.9026 83.8633 86.8778 79.7745 86.8632C75.8279 86.8438 71.7637 86.8418 68.5666 87.8735C65.3696 88.9051 62.0605 91.3069 58.8636 93.6109C55.536 96.0187 52.3948 98.3047 49.1048 99.3664C42.7107 101.43 35.7548 97.6815 33.6016 91.0086C33.0672 89.4161 32.8607 87.7588 32.9571 86.0858C33.1186 81.4982 35.9227 78.2948 38.6332 75.1831C41.0002 72.4696 43.236 69.9216 44.0733 66.3473C46.3916 56.487 47.7953 50.5339 55.6764 47.9907C63.5575 45.4476 68.1576 49.4634 75.8021 56.1088C78.5648 58.501 81.8555 59.2861 85.3561 60.0857C89.3743 61.0261 93.5033 61.9923 96.3404 65.6328C97.4151 66.9279 98.2163 68.3933 98.7135 69.9978C100.867 76.6707 97.4323 83.7717 91.0382 85.835ZM66.6473 81.9255C70.7923 80.5879 75.3566 80.6133 79.7913 80.6188C83.386 80.6287 86.7582 80.6487 89.1188 79.887C92.223 78.8853 93.8572 75.3001 92.7595 71.8986C92.4836 71.0435 92.071 70.2737 91.4971 69.5764L91.424 69.4769C90.0393 67.6661 87.6611 67.038 83.9326 66.1683C80.0501 65.2663 75.6314 64.2294 71.6988 60.8191C63.797 53.9489 61.7222 52.6072 57.5958 53.9387C53.4694 55.2703 52.5516 57.5777 50.1619 67.7893C48.9704 72.8736 45.9852 76.2791 43.3496 79.305C41.0701 81.9081 39.29 83.9602 39.1991 86.3497L39.192 86.4546C39.1279 87.3372 39.2491 88.2217 39.519 89.0581L39.525 89.0767C40.6226 92.4782 44.0442 94.432 47.1669 93.4244C49.5275 92.6626 52.2706 90.6692 55.1815 88.5601C58.7951 85.9574 62.5023 83.263 66.6473 81.9255Z" fill="#FFA672"/>
<path d="M43.1536 49.5689C40.2726 50.4986 36.974 49.8801 33.8499 47.8303C31.0819 45.994 28.6327 43.1107 26.9607 39.7098C22.9929 31.6112 24.3597 23.0636 30.0942 20.228C30.4665 20.0463 30.8449 19.8832 31.2538 19.7512C34.1349 18.8215 37.4334 19.44 40.539 21.4958C43.307 23.3322 45.7561 26.2155 47.4342 29.6349C51.402 37.7335 50.0351 46.2812 44.3007 49.1167C43.9409 49.2738 43.544 49.443 43.1536 49.5689ZM33.1917 25.6932C33.0988 25.7232 32.9873 25.7592 32.9003 25.8078L32.8817 25.8138C30.7034 26.8861 30.1121 31.8588 32.5896 36.9289C34.9885 41.8191 38.9978 44.3221 41.2283 43.6023C41.3212 43.5723 41.4328 43.5364 41.5197 43.4878L41.5383 43.4818C43.7166 42.4095 44.3079 37.4368 41.8304 32.3667C39.4315 27.4765 35.4222 24.9735 33.1917 25.6932Z" fill="#FFA672"/>
<path d="M66.7597 41.9516C66.3694 42.0775 65.9671 42.1663 65.5587 42.2365C59.2545 43.3062 53.1306 37.1758 51.6289 28.2608C50.9918 24.5055 51.2936 20.7345 52.4722 17.6452C53.7718 14.1679 56.0867 11.738 58.9677 10.8083C59.3581 10.6824 59.779 10.5876 60.1873 10.5174C66.473 9.45368 72.5968 15.5841 74.1171 24.4931C74.7483 28.2298 74.465 31.9948 73.2925 35.1027C71.9557 38.592 69.6408 41.0219 66.7597 41.9516ZM60.8871 16.7563C58.6566 17.4761 56.8665 21.8504 57.7785 27.2205C58.7318 32.7824 62.1182 36.4715 64.5124 36.0684L64.531 36.0624C64.6299 36.051 64.7475 36.0336 64.8344 35.985C67.0835 35.2592 68.8549 30.8909 67.943 25.5208C66.9897 19.9589 63.6033 16.2698 61.2091 16.6729C61.0915 16.6903 60.98 16.7263 60.8871 16.7563Z" fill="#FFA672"/>
<path d="M30.973 74.0223L30.9544 74.0283C25.8615 75.6717 19.2469 73.0449 14.5255 67.5085C11.099 63.504 9.28705 58.5885 9.63622 54.3918C9.8668 51.6083 11.0256 49.2847 12.9496 47.6788L12.9682 47.6728C13.8646 46.9526 14.8581 46.4062 15.9548 46.0523C21.0477 44.4089 27.6623 47.0358 32.3836 52.5721C35.8102 56.5766 37.6221 61.4921 37.273 65.6888C37.0424 68.4723 35.8835 70.7959 33.9595 72.4019L33.941 72.4079C33.0446 73.1281 32.0511 73.6744 30.973 74.0223ZM16.9244 52.4915C16.314 53.0168 15.9417 53.8347 15.8447 54.9332C15.6225 57.4882 16.9437 60.756 19.2585 63.4774C22.6425 67.4136 26.8232 68.7941 29.0351 68.0803C29.3882 67.9663 29.6862 67.8086 29.9417 67.5825C30.552 67.0572 30.9243 66.2393 31.0213 65.1408C31.2435 62.5858 29.9223 59.3181 27.6075 56.5966C24.2421 52.6545 20.0614 51.274 17.8495 51.9877C17.4963 52.1017 17.1984 52.2594 16.9244 52.4915Z" fill="#FFA672"/>
</svg>
